HIERARCHY
ROOT Hips
{
	OFFSET 0.000000 0.000000 0.000000
	CHANNELS 6 Xposition Yposition Zposition Zrotation Yrotation Xrotation 
	JOINT LeftUpLeg_virtual
	{
		OFFSET 0.000000 0.000000 0.000000
		CHANNELS 3 Zrotation Yrotation Xrotation
		JOINT LeftUpLeg
		{
			OFFSET 8.479694 -4.795517 -0.379053
			CHANNELS 3 Zrotation Yrotation Xrotation
			JOINT LeftLeg
			{
				OFFSET 0.485052 -32.551468 0.112863
				CHANNELS 3 Zrotation Yrotation Xrotation
				JOINT LeftFoot
				{
					OFFSET 0.438033 -32.635670 -3.012641
					CHANNELS 3 Zrotation Yrotation Xrotation
					JOINT LeftToeBase
					{
						OFFSET 0.970169 -13.225353 11.864223
						CHANNELS 3 Zrotation Yrotation Xrotation
						End Site
						{
							OFFSET 0.000000 0.000000 0.000000
						}
					}
				}
			}
		}
	}
	JOINT RightUpLeg_virtual
	{
		OFFSET 0.000000 0.000000 0.000000
		CHANNELS 3 Zrotation Yrotation Xrotation
		JOINT RightUpLeg
		{
			OFFSET -8.479694 -4.795517 -0.379053
			CHANNELS 3 Zrotation Yrotation Xrotation
			JOINT RightLeg
			{
				OFFSET -0.484100 -32.551483 0.112903
				CHANNELS 3 Zrotation Yrotation Xrotation
				JOINT RightFoot
				{
					OFFSET -0.438985 -32.635651 -3.012681
					CHANNELS 3 Zrotation Yrotation Xrotation
					JOINT RightToeBase
					{
						OFFSET -0.970169 -13.225354 11.864223
						CHANNELS 3 Zrotation Yrotation Xrotation
						End Site
						{
							OFFSET 0.000000 0.000000 0.000000
						}
					}
				}
			}
		}
	}
	JOINT Spine_virtual
	{
		OFFSET 0.000000 0.000000 0.000000
		CHANNELS 3 Zrotation Yrotation Xrotation
		JOINT Spine
		{
			OFFSET 0.000000 7.722015 1.166203
			CHANNELS 3 Zrotation Yrotation Xrotation
			JOINT Spine1
			{
				OFFSET 0.000000 12.024086 0.248766
				CHANNELS 3 Zrotation Yrotation Xrotation
				JOINT Spine2
				{
					OFFSET -0.000000 11.503036 -0.491240
					CHANNELS 3 Zrotation Yrotation Xrotation
					JOINT Neck_virtual
					{
						OFFSET 0.000000 0.000000 0.000000
						CHANNELS 3 Zrotation Yrotation Xrotation
						JOINT Neck
						{
							OFFSET 0.000000 18.430687 -3.123054
							CHANNELS 3 Zrotation Yrotation Xrotation
							JOINT Head
							{
								OFFSET -0.000000 9.051071 1.034021
								CHANNELS 3 Zrotation Yrotation Xrotation
								End Site
								{
									OFFSET 0.000000 0.000000 0.000000
								}
							}
						}
					}
					JOINT LeftShoulder_virtual
					{
						OFFSET 0.000000 0.000000 0.000000
						CHANNELS 3 Zrotation Yrotation Xrotation
						JOINT LeftShoulder
						{
							OFFSET 6.197824 13.665230 -4.064723
							CHANNELS 3 Zrotation Yrotation Xrotation
							JOINT LeftArm
							{
								OFFSET 7.778132 -0.187073 -1.709282
								CHANNELS 3 Zrotation Yrotation Xrotation
								JOINT LeftForeArm
								{
									OFFSET 21.954697 0.000000 -2.041093
									CHANNELS 3 Zrotation Yrotation Xrotation
									JOINT LeftHand
									{
										OFFSET 22.992908 0.000000 -0.870901
										CHANNELS 3 Zrotation Yrotation Xrotation
										End Site
										{
											OFFSET 0.000000 0.000000 0.000000
										}
									}
								}
							}
						}
					}
					JOINT RightShoulder_virtual
					{
						OFFSET 0.000000 0.000000 0.000000
						CHANNELS 3 Zrotation Yrotation Xrotation
						JOINT RightShoulder
						{
							OFFSET -6.197824 13.665230 -4.064723
							CHANNELS 3 Zrotation Yrotation Xrotation
							JOINT RightArm
							{
								OFFSET -7.778132 -0.187073 -1.709282
								CHANNELS 3 Zrotation Yrotation Xrotation
								JOINT RightForeArm
								{
									OFFSET -21.954697 0.000000 -2.041093
									CHANNELS 3 Zrotation Yrotation Xrotation
									JOINT RightHand
									{
										OFFSET -22.992908 0.000000 -0.870901
										CHANNELS 3 Zrotation Yrotation Xrotation
										End Site
										{
											OFFSET 0.000000 0.000000 0.000000
										}
									}
								}
							}
						}
					}
				}
			}
		}
	}
}
MOTION
Frames: 8
Frame Time: 0.033333
6.488516 79.238342 -53.919861 179.867855 0.866179 -179.993025 -1.962402 -0.934817 11.596945 -0.620218 0.445179 -32.287185 8.305785 4.515279 26.696788 -4.646644 -7.277398 -11.275418 0.000000 0.000000 0.000000 1.080674 -1.802528 12.623471 -1.033416 6.242678 -34.366916 0.372561 5.321414 31.922682 13.374762 5.549737 -11.797333 0.000000 0.000000 0.000000 4.745637 1.323116 -2.611512 -4.134334 -1.346777 -1.623628 -0.749164 -1.740542 10.682123 0.003262 0.064692 0.015509 -1.034970 -0.519637 11.940613 -1.761349 -1.832995 -4.269681 0.000000 0.000000 0.000000 0.258978 0.122749 9.013621 -9.926696 -6.656602 1.557549 -61.165539 -2.505153 12.744522 -0.790805 -20.416463 -0.326209 0.000000 0.000000 0.000000 -3.307263 1.509627 8.558363 25.491321 3.527201 6.541529 50.264909 3.653287 7.312517 -3.863108 20.050406 -1.899377 0.000000 0.000000 0.000000 
6.536739 79.234955 -53.896912 179.779035 0.913499 -179.969583 -1.997732 -1.038816 11.463330 -0.667879 0.348949 -32.329307 8.546950 4.587841 27.077626 -4.393944 -6.900162 -11.501619 0.000000 0.000000 0.000000 1.174619 -1.734364 12.623315 -0.902641 6.256838 -34.591438 0.579296 5.250220 32.180935 13.766373 5.843121 -11.335532 0.000000 0.000000 0.000000 4.663974 1.324378 -2.669033 -4.177194 -1.338593 -1.630239 -0.763654 -1.760012 10.685661 0.053638 0.068279 -0.024342 -1.065756 -0.454502 11.987938 -1.767510 -1.806964 -4.268528 0.000000 0.000000 0.000000 0.203390 0.184556 9.020960 -10.055250 -6.650939 1.534022 -61.156742 -2.730061 12.783090 -0.784157 -20.360560 -0.320423 0.000000 0.000000 0.000000 -3.356977 1.612454 8.584537 25.558189 3.540559 6.575693 50.433557 3.559884 7.357853 -3.907922 19.996185 -1.887941 0.000000 0.000000 0.000000 
6.605866 79.232925 -53.881847 179.773407 0.965234 179.999008 -2.065776 -0.987119 11.280071 -0.554947 0.322629 -32.238059 8.655828 4.571801 27.295268 -4.519033 -6.901670 -11.512296 0.000000 0.000000 0.000000 1.135033 -1.617615 12.429609 -0.758111 6.084760 -34.485601 0.547719 5.116939 32.437146 13.851751 5.800855 -11.245736 0.000000 0.000000 0.000000 4.570807 1.594153 -2.686678 -4.164667 -1.332607 -1.611197 -0.781320 -1.845273 10.716042 0.054798 0.050052 0.001404 -1.022144 -0.476771 11.919789 -1.727891 -1.813316 -4.219470 0.000000 0.000000 0.000000 0.247624 0.142509 9.004328 -10.212326 -6.622552 1.541097 -60.975298 -2.923705 12.945806 -0.778588 -20.350224 -0.292615 0.000000 0.000000 0.000000 -3.371008 1.502850 8.575739 25.571456 3.491136 6.535756 50.593325 3.628076 7.323782 -3.856694 20.031732 -1.923692 0.000000 0.000000 0.000000 
6.652999 79.247398 -53.896358 179.755716 0.909077 -179.988407 -2.156904 -0.888296 11.093027 -0.450706 0.353567 -32.144339 8.714070 4.591312 27.434122 -4.750585 -6.970090 -11.460771 0.000000 0.000000 0.000000 1.064213 -1.446673 12.263794 -0.588782 5.840736 -34.396416 0.499225 4.985453 32.614338 13.994638 5.734397 -11.129935 0.000000 0.000000 0.000000 4.423842 1.575610 -2.719958 -4.111335 -1.247139 -1.701623 -0.744094 -1.766698 10.805883 0.043558 0.080897 -0.022656 -0.957794 -0.443323 11.884988 -1.639781 -1.812338 -4.098280 0.000000 0.000000 0.000000 0.284030 0.116412 8.965317 -10.163301 -6.630357 1.469697 -60.825027 -3.043643 13.194553 -0.750550 -20.370319 -0.276999 0.000000 0.000000 0.000000 -3.331271 1.434639 8.550458 25.552185 3.506371 6.583295 50.844987 3.665282 7.328387 -3.987749 20.248845 -2.149577 0.000000 0.000000 0.000000 
6.680424 79.265350 -53.917969 179.721784 0.862976 -179.955377 -2.285877 -0.777982 10.959646 -0.354740 0.391090 -32.098781 8.750577 4.614406 27.499212 -4.978674 -7.029319 -11.409996 0.000000 0.000000 0.000000 0.988845 -1.317149 12.147009 -0.437784 5.555894 -34.348615 0.445505 4.905248 32.711702 14.194079 5.658488 -10.999438 0.000000 0.000000 0.000000 4.259792 1.560317 -2.756891 -4.079483 -1.285237 -1.746527 -0.686278 -1.848463 10.650439 0.050253 0.063841 -0.016812 -0.955208 -0.530517 11.932456 -1.578967 -1.740756 -4.021416 0.000000 0.000000 0.000000 0.312181 0.145113 8.987983 -10.145924 -6.513119 1.499466 -60.494173 -2.952758 13.600111 -0.729117 -20.383207 -0.275232 0.000000 0.000000 0.000000 -3.315295 1.533834 8.627911 25.520908 3.542769 6.465971 51.089692 3.487320 6.997155 -3.908054 20.599543 -2.169985 0.000000 0.000000 0.000000 
6.722958 79.277138 -53.916393 179.723109 0.898372 -179.998188 -2.380258 -0.709085 10.928548 -0.249932 0.417849 -32.016980 8.800308 4.624056 27.492167 -5.117986 -7.025648 -11.376820 0.000000 0.000000 0.000000 0.963735 -1.267424 12.084928 -0.293222 5.305066 -34.216075 0.410066 4.848782 32.746338 14.443331 5.605769 -10.864536 0.000000 0.000000 0.000000 4.189694 1.559271 -2.809367 -4.022632 -1.192359 -1.790803 -0.640732 -1.847049 10.654626 0.052290 0.098775 0.005008 -0.871525 -0.481922 11.846272 -1.372216 -1.795443 -3.875858 0.000000 0.000000 0.000000 0.380250 0.012206 8.886916 -10.009670 -6.413251 1.520531 -60.124687 -2.718491 14.094246 -0.746308 -20.433401 -0.120735 0.000000 0.000000 0.000000 -3.292763 1.443260 8.539745 25.557419 3.519484 6.558094 51.351944 3.289772 6.910558 -4.069327 21.067988 -2.422060 0.000000 0.000000 0.000000 
6.773381 79.286690 -53.895508 179.752424 1.005828 -179.994445 -2.378895 -0.779145 10.872431 -0.204448 0.464467 -31.936725 8.932532 4.712118 27.484430 -5.222291 -7.004885 -11.357636 0.000000 0.000000 0.000000 0.984515 -1.282038 11.908448 -0.155870 5.102182 -34.100314 0.404762 4.851248 32.739439 14.706519 5.584498 -10.694737 0.000000 0.000000 0.000000 4.213299 1.485537 -2.988065 -3.971205 -1.067751 -1.879762 -0.642855 -1.873031 10.742814 0.025092 0.087473 0.006389 -0.743715 -0.499695 11.828186 -1.119178 -1.798683 -3.611402 0.000000 0.000000 0.000000 0.403407 0.061315 8.926160 -9.846631 -6.318425 1.522483 -59.689426 -2.485070 14.495523 -0.868014 -20.493923 -0.105214 0.000000 0.000000 0.000000 -3.254100 1.453358 8.534103 25.621395 3.607622 6.642855 51.519827 2.859149 6.723510 -4.186016 21.668148 -2.516969 0.000000 0.000000 0.000000 
6.808373 79.283432 -53.887344 179.750676 1.152994 -179.961073 -2.372589 -0.856247 10.765892 -0.193667 0.549776 -31.874475 8.989653 4.649508 27.591068 -5.178450 -6.861628 -11.403273 0.000000 0.000000 0.000000 0.996643 -1.332230 11.688008 -0.034299 4.932375 -33.911152 0.437855 4.978556 32.733009 14.961181 5.630001 -10.635330 0.000000 0.000000 0.000000 4.226730 1.467661 -3.252575 -3.925616 -0.836543 -1.891592 -0.600926 -1.981412 10.742383 0.061314 -0.024912 -0.009613 -0.832383 -0.726543 11.915964 -1.005507 -1.723370 -3.374909 0.000000 0.000000 0.000000 0.399564 -0.024490 8.963314 -9.761169 -6.103002 1.614605 -59.272887 -1.987973 14.898936 -0.868359 -20.911386 -0.047402 0.000000 0.000000 0.000000 -3.279974 1.369467 8.577722 25.862709 3.714587 6.808234 51.640052 2.443098 6.545129 -4.376495 22.065565 -2.662231 0.000000 0.000000 0.000000 
